<svg width="381" height="104" viewBox="0 0 381 104" fill="none" xmlns="http://www.w3.org/2000/svg">
<path d="M60.9583 85.04H70.7183V88H57.3183V60.12H60.9583V85.04ZM76.4639 62.52C75.7706 62.52 75.1839 62.28 74.7039 61.8C74.2239 61.32 73.9839 60.7333 73.9839 60.04C73.9839 59.3467 74.2239 58.76 74.7039 58.28C75.1839 57.8 75.7706 57.56 76.4639 57.56C77.1306 57.56 77.6906 57.8 78.1439 58.28C78.6239 58.76 78.8639 59.3467 78.8639 60.04C78.8639 60.7333 78.6239 61.32 78.1439 61.8C77.6906 62.28 77.1306 62.52 76.4639 62.52ZM78.2239 66.08V88H74.5839V66.08H78.2239ZM93.4677 65.72C95.361 65.72 97.0143 66.1333 98.4277 66.96C99.8677 67.7867 100.934 68.8267 101.628 70.08V66.08H105.308V88.48C105.308 90.48 104.881 92.2533 104.028 93.8C103.174 95.3733 101.948 96.6 100.348 97.48C98.7743 98.36 96.9343 98.8 94.8277 98.8C91.9477 98.8 89.5477 98.12 87.6277 96.76C85.7077 95.4 84.5743 93.5467 84.2277 91.2H87.8277C88.2277 92.5333 89.0543 93.6 90.3077 94.4C91.561 95.2267 93.0677 95.64 94.8277 95.64C96.8277 95.64 98.4543 95.0133 99.7077 93.76C100.988 92.5067 101.628 90.7467 101.628 88.48V83.88C100.908 85.16 99.841 86.2267 98.4277 87.08C97.0143 87.9333 95.361 88.36 93.4677 88.36C91.521 88.36 89.7477 87.88 88.1477 86.92C86.5743 85.96 85.3343 84.6133 84.4277 82.88C83.521 81.1467 83.0677 79.1733 83.0677 76.96C83.0677 74.72 83.521 72.76 84.4277 71.08C85.3343 69.3733 86.5743 68.0533 88.1477 67.12C89.7477 66.1867 91.521 65.72 93.4677 65.72ZM101.628 77C101.628 75.3467 101.294 73.9067 100.628 72.68C99.961 71.4533 99.0543 70.52 97.9077 69.88C96.7877 69.2133 95.5477 68.88 94.1877 68.88C92.8277 68.88 91.5877 69.2 90.4677 69.84C89.3477 70.48 88.4543 71.4133 87.7877 72.64C87.121 73.8667 86.7877 75.3067 86.7877 76.96C86.7877 78.64 87.121 80.1067 87.7877 81.36C88.4543 82.5867 89.3477 83.5333 90.4677 84.2C91.5877 84.84 92.8277 85.16 94.1877 85.16C95.5477 85.16 96.7877 84.84 97.9077 84.2C99.0543 83.5333 99.961 82.5867 100.628 81.36C101.294 80.1067 101.628 78.6533 101.628 77ZM122.339 65.68C123.992 65.68 125.486 66.04 126.819 66.76C128.152 67.4533 129.192 68.5067 129.939 69.92C130.712 71.3333 131.099 73.0533 131.099 75.08V88H127.499V75.6C127.499 73.4133 126.952 71.7467 125.859 70.6C124.766 69.4267 123.272 68.84 121.379 68.84C119.459 68.84 117.926 69.44 116.779 70.64C115.659 71.84 115.099 73.5867 115.099 75.88V88H111.459V58.4H115.099V69.2C115.819 68.08 116.806 67.2133 118.059 66.6C119.339 65.9867 120.766 65.68 122.339 65.68ZM141.485 69.08V82C141.485 83.0667 141.712 83.8267 142.165 84.28C142.618 84.7067 143.405 84.92 144.525 84.92H147.205V88H143.925C141.898 88 140.378 87.5333 139.365 86.6C138.352 85.6667 137.845 84.1333 137.845 82V69.08H135.005V66.08H137.845V60.56H141.485V66.08H147.205V69.08H141.485ZM171.119 88.28C169.279 88.28 167.626 87.96 166.159 87.32C164.719 86.6533 163.586 85.7467 162.759 84.6C161.933 83.4267 161.506 82.08 161.479 80.56H165.359C165.493 81.8667 166.026 82.9733 166.959 83.88C167.919 84.76 169.306 85.2 171.119 85.2C172.853 85.2 174.213 84.7733 175.199 83.92C176.213 83.04 176.719 81.92 176.719 80.56C176.719 79.4933 176.426 78.6267 175.839 77.96C175.253 77.2933 174.519 76.7867 173.639 76.44C172.759 76.0933 171.573 75.72 170.079 75.32C168.239 74.84 166.759 74.36 165.639 73.88C164.546 73.4 163.599 72.6533 162.799 71.64C162.026 70.6 161.639 69.2133 161.639 67.48C161.639 65.96 162.026 64.6133 162.799 63.44C163.573 62.2667 164.653 61.36 166.039 60.72C167.453 60.08 169.066 59.76 170.879 59.76C173.493 59.76 175.626 60.4133 177.279 61.72C178.959 63.0267 179.906 64.76 180.119 66.92H176.119C175.986 65.8533 175.426 64.92 174.439 64.12C173.453 63.2933 172.146 62.88 170.519 62.88C168.999 62.88 167.759 63.28 166.799 64.08C165.839 64.8533 165.359 65.9467 165.359 67.36C165.359 68.3733 165.639 69.2 166.199 69.84C166.786 70.48 167.493 70.9733 168.319 71.32C169.173 71.64 170.359 72.0133 171.879 72.44C173.719 72.9467 175.199 73.4533 176.319 73.96C177.439 74.44 178.399 75.2 179.199 76.24C179.999 77.2533 180.399 78.64 180.399 80.4C180.399 81.76 180.039 83.04 179.319 84.24C178.599 85.44 177.533 86.4133 176.119 87.16C174.706 87.9067 173.039 88.28 171.119 88.28ZM204.636 66.08L191.436 98.32H187.676L191.996 87.76L183.156 66.08H187.196L194.076 83.84L200.876 66.08H204.636ZM218.975 65.68C221.642 65.68 223.802 66.4933 225.455 68.12C227.108 69.72 227.935 72.04 227.935 75.08V88H224.335V75.6C224.335 73.4133 223.788 71.7467 222.695 70.6C221.602 69.4267 220.108 68.84 218.215 68.84C216.295 68.84 214.762 69.44 213.615 70.64C212.495 71.84 211.935 73.5867 211.935 75.88V88H208.295V66.08H211.935V69.2C212.655 68.08 213.628 67.2133 214.855 66.6C216.108 65.9867 217.482 65.68 218.975 65.68ZM232.521 77C232.521 74.7333 232.974 72.76 233.881 71.08C234.787 69.3733 236.041 68.0533 237.641 67.12C239.267 66.1867 241.121 65.72 243.201 65.72C245.894 65.72 248.107 66.3733 249.841 67.68C251.601 68.9867 252.761 70.8 253.321 73.12H249.401C249.027 71.7867 248.294 70.7333 247.201 69.96C246.134 69.1867 244.801 68.8 243.201 68.8C241.121 68.8 239.441 69.52 238.161 70.96C236.881 72.3733 236.241 74.3867 236.241 77C236.241 79.64 236.881 81.68 238.161 83.12C239.441 84.56 241.121 85.28 243.201 85.28C244.801 85.28 246.134 84.9067 247.201 84.16C248.267 83.4133 249.001 82.3467 249.401 80.96H253.321C252.734 83.2 251.561 85 249.801 86.36C248.041 87.6933 245.841 88.36 243.201 88.36C241.121 88.36 239.267 87.8933 237.641 86.96C236.041 86.0267 234.787 84.7067 233.881 83C232.974 81.2933 232.521 79.2933 232.521 77ZM285.322 81.8H273.162L270.922 88H267.082L277.162 60.28H281.362L291.402 88H287.562L285.322 81.8ZM284.282 78.84L279.242 64.76L274.202 78.84H284.282ZM315.235 66.08V88H311.595V84.76C310.902 85.88 309.928 86.76 308.675 87.4C307.448 88.0133 306.088 88.32 304.595 88.32C302.888 88.32 301.355 87.9733 299.995 87.28C298.635 86.56 297.555 85.4933 296.755 84.08C295.982 82.6667 295.595 80.9467 295.595 78.92V66.08H299.195V78.44C299.195 80.6 299.742 82.2667 300.835 83.44C301.928 84.5867 303.422 85.16 305.315 85.16C307.262 85.16 308.795 84.56 309.915 83.36C311.035 82.16 311.595 80.4133 311.595 78.12V66.08H315.235ZM320.021 76.96C320.021 74.72 320.474 72.76 321.381 71.08C322.287 69.3733 323.527 68.0533 325.101 67.12C326.701 66.1867 328.487 65.72 330.461 65.72C332.167 65.72 333.754 66.12 335.221 66.92C336.687 67.6933 337.807 68.72 338.581 70V58.4H342.261V88H338.581V83.88C337.861 85.1867 336.794 86.2667 335.381 87.12C333.967 87.9467 332.314 88.36 330.421 88.36C328.474 88.36 326.701 87.88 325.101 86.92C323.527 85.96 322.287 84.6133 321.381 82.88C320.474 81.1467 320.021 79.1733 320.021 76.96ZM338.581 77C338.581 75.3467 338.247 73.9067 337.581 72.68C336.914 71.4533 336.007 70.52 334.861 69.88C333.741 69.2133 332.501 68.88 331.141 68.88C329.781 68.88 328.541 69.2 327.421 69.84C326.301 70.48 325.407 71.4133 324.741 72.64C324.074 73.8667 323.741 75.3067 323.741 76.96C323.741 78.64 324.074 80.1067 324.741 81.36C325.407 82.5867 326.301 83.5333 327.421 84.2C328.541 84.84 329.781 85.16 331.141 85.16C332.501 85.16 333.741 84.84 334.861 84.2C336.007 83.5333 336.914 82.5867 337.581 81.36C338.247 80.1067 338.581 78.6533 338.581 77ZM350.292 62.52C349.599 62.52 349.012 62.28 348.532 61.8C348.052 61.32 347.812 60.7333 347.812 60.04C347.812 59.3467 348.052 58.76 348.532 58.28C349.012 57.8 349.599 57.56 350.292 57.56C350.959 57.56 351.519 57.8 351.972 58.28C352.452 58.76 352.692 59.3467 352.692 60.04C352.692 60.7333 352.452 61.32 351.972 61.8C351.519 62.28 350.959 62.52 350.292 62.52ZM352.052 66.08V88H348.412V66.08H352.052ZM367.816 88.36C365.762 88.36 363.896 87.8933 362.216 86.96C360.562 86.0267 359.256 84.7067 358.296 83C357.362 81.2667 356.896 79.2667 356.896 77C356.896 74.76 357.376 72.7867 358.336 71.08C359.322 69.3467 360.656 68.0267 362.336 67.12C364.016 66.1867 365.896 65.72 367.976 65.72C370.056 65.72 371.936 66.1867 373.616 67.12C375.296 68.0267 376.616 69.3333 377.576 71.04C378.562 72.7467 379.056 74.7333 379.056 77C379.056 79.2667 378.549 81.2667 377.536 83C376.549 84.7067 375.202 86.0267 373.496 86.96C371.789 87.8933 369.896 88.36 367.816 88.36ZM367.816 85.16C369.122 85.16 370.349 84.8533 371.496 84.24C372.642 83.6267 373.562 82.7067 374.256 81.48C374.976 80.2533 375.336 78.76 375.336 77C375.336 75.24 374.989 73.7467 374.296 72.52C373.602 71.2933 372.696 70.3867 371.576 69.8C370.456 69.1867 369.242 68.88 367.936 68.88C366.602 68.88 365.376 69.1867 364.256 69.8C363.162 70.3867 362.282 71.2933 361.616 72.52C360.949 73.7467 360.616 75.24 360.616 77C360.616 78.7867 360.936 80.2933 361.576 81.52C362.242 82.7467 363.122 83.6667 364.216 84.28C365.309 84.8667 366.509 85.16 367.816 85.16Z" fill="white"/>
<rect y="72" width="40" height="4" rx="2" fill="white"/>
<rect x="66" y="40" width="40" height="4" rx="2" transform="rotate(-90 66 40)" fill="white"/>
<rect x="9.45946" y="37.2163" width="40" height="3.78378" rx="1.89189" transform="rotate(30 9.45946 37.2163)" fill="white"/>
<rect x="34.4931" y="10.7297" width="40" height="3.78378" rx="1.89189" transform="rotate(60 34.4931 10.7297)" fill="white"/>
</svg>
